<?xml version="1.0" encoding="UTF-8" standalone="no"?>
<svg width="62px" height="22px" viewBox="0 0 62 22" version="1.1" xmlns="http://www.w3.org/2000/svg" xmlns:xlink="http://www.w3.org/1999/xlink">
    <!-- Generator: Sketch 45.1 (43504) - http://www.bohemiancoding.com/sketch -->
    <title>ber_C1_large</title>
    <desc>Created with Sketch.</desc>
    <defs></defs>
    <g id="Page-1" stroke="none" stroke-width="1" fill="none" fill-rule="evenodd">
        <g id="ber_C1_large">
            <polyline id="Fill-1" fill="#FFFFFF" points="57.3984215 0.118953488 0.222123967 0.118953488 0.222123967 21.8697907 57.4832231 21.8697907 61.9374876 10.650814 57.3984215 0.118953488"></polyline>
            <polyline id="Fill-2" fill="#BFD730" points="55.7513223 2.6052093 34.8550165 2.6052093 38.4417934 10.7163023 34.8550165 19.3917209 55.7513223 19.3917209 59.2294711 10.650814 55.7513223 2.6052093"></polyline>
            <path d="M46.2809504,9.28323256 C46.1244132,8.72606977 45.8277355,7.68106977 44.2229091,7.68106977 C43.2934215,7.68106977 41.9219917,8.3014186 41.9219917,10.923 C41.9219917,12.5886047 42.5806777,14.086907 44.2229091,14.086907 C45.2979174,14.086907 46.0478099,13.4793488 46.2809504,12.3427674 L48.2219091,12.3427674 C47.831719,14.3585814 46.5125537,15.7655581 44.1834545,15.7655581 C41.7147273,15.7655581 39.9438843,14.0996977 39.9438843,10.896907 C39.9438843,7.65676744 41.8192562,6.00216279 44.2095868,6.00216279 C46.992157,6.00216279 48.1173802,7.91360465 48.2219091,9.28323256 L46.2809504,9.28323256" id="Fill-3" fill="#000000"></path>
            <path d="M49.6081983,7.93995349 L49.8638843,7.93995349 C51.6106446,7.93995349 52.0771818,7.03411628 52.1145868,6.35237209 L53.6038678,6.35237209 L53.6038678,15.5215116 L51.793314,15.5215116 L51.793314,9.20495349 L49.6081983,9.20495349 L49.6081983,7.93995349" id="Fill-4" fill="#000000"></path>
            <path d="M2.70827273,2.6052093 L32.1475124,2.6052093 L32.1475124,19.3914651 L2.70827273,19.3914651 L2.70827273,2.6052093 Z M32.1475124,2.6052093 L35.7322397,10.7163023 L32.1475124,19.3917209 L32.1475124,2.6052093 Z" id="Fill-5" fill="#000000"></path>
            <path d="M6.4013719,6.33369767 L10.9135372,6.33369767 C13.1901157,6.33369767 13.7742479,7.75346512 13.7742479,8.70969767 C13.7742479,10.0396744 13.0220496,10.414186 12.6357025,10.608093 C13.7742479,11.0347907 14.0706694,11.9383256 14.0706694,12.8554186 C14.0706694,13.5911395 13.7609256,14.2897674 13.2682562,14.7668605 C12.738438,15.2828372 12.2344959,15.6072093 10.3311983,15.6072093 L6.4013719,15.6072093 L6.4013719,6.33369767 L6.4013719,6.33369767 Z M8.2616281,9.96139535 L10.5384628,9.96139535 C11.3016777,9.96139535 11.9098926,9.66516279 11.9098926,8.92918605 C11.9098926,8.16711628 11.3670083,7.93611628 10.4879917,7.93611628 L8.2616281,7.93611628 L8.2616281,9.96139535 L8.2616281,9.96139535 Z M8.2616281,14.0050465 L10.6447851,14.0050465 C11.5852893,14.0050465 12.1302231,13.5911395 12.1302231,12.6484651 C12.1302231,11.836 11.4320826,11.5246744 10.732405,11.5246744 L8.2616281,11.5246744 L8.2616281,14.0050465 L8.2616281,14.0050465 Z" id="Fill-6" fill="#FFFFFF"></path>
            <polyline id="Fill-7" fill="#FFFFFF" points="22.0912149 7.9732093 17.1629835 7.9732093 17.1629835 9.92430233 21.6918017 9.92430233 21.6918017 11.5640698 17.1629835 11.5640698 17.1629835 13.9656512 22.3112893 13.9656512 22.3112893 15.6072093 15.2614793 15.6072093 15.2614793 6.33369767 22.0912149 6.33369767 22.0912149 7.9732093"></polyline>
            <path d="M23.4124298,6.33369767 L28.1072645,6.33369767 C30.5780413,6.33369767 31.029719,8.15406977 31.029719,8.95527907 C31.029719,9.97469767 30.5127107,10.854186 29.5927025,11.1632093 C30.3579669,11.4988372 30.7722397,11.7822791 30.7722397,13.5126047 C30.7722397,14.869186 30.7722397,15.2063488 31.184719,15.3595814 L31.184719,15.6072093 L29.0385455,15.6072093 C28.9099339,15.1677209 28.8315372,14.6888372 28.8315372,13.7326047 C28.8315372,12.4676047 28.7531405,11.9754186 27.316124,11.9754186 L25.3139339,11.9754186 L25.3139339,15.6072093 L23.4124298,15.6072093 L23.4124298,6.33369767 L23.4124298,6.33369767 Z M27.5905124,10.414186 C28.5999339,10.414186 29.0890165,10.0657674 29.0890165,9.14893023 C29.0890165,8.65725581 28.8704793,7.93611628 27.7324463,7.93611628 L25.3139339,7.93611628 L25.3139339,10.414186 L27.5905124,10.414186 L27.5905124,10.414186 Z" id="Fill-8" fill="#FFFFFF"></path>
        </g>
    </g>
</svg>